# xmcd
#
# Track frame offsets: 
#        150
#        12475
#        23625
#        35112
#        50287
#        61075
#        72600
#        84650
#        94000
#        104250
#        121562
#        137200
#        146900
#        156262
#        168887
#        180962
#        196075
#        213725
#        225100
#        238387
#        254825
#        264212
#        276625
#
# Disc length: 3856 seconds
#
# Revision: 1
# Processed by: cddbd v1.5.2PL0 Copyright (c) Steve Scherf et al.
# Submitted via: ExactAudioCopy v1.0b1
#
DISCID=4a0f0e17
DTITLE=Flatt and Scruggs - Hard Travelin' and Final Fling
DYEAR=1962
DGENRE=Bluegrass
TTITLE0=Hard Travelin'
TTITLE1=Dixie Home
TTITLE2=The Wreck Of The Old 97
TTITLE3=Over The Hill To The Poorhouse
TTITLE4=Drowned In The Deep Blue Sea
TTITLE5=Coal Miner's Blues
TTITLE6=Pastures Of Plenty
TTITLE7=The Ballad Of Jed Clampett
TTITLE8=My Native Home
TTITLE9=When I Left East Virginia
TTITLE10=99 Years Is Almost For Life
TTITLE11=Bound To Ride
TTITLE12=Honey  Just Allow Me One More Chance
TTITLE13=Nashville Skyline Rag
TTITLE14=I Walk The Line
TTITLE15=Tonight Will Be Fine
TTITLE16=A Boy Named Sue
TTITLE17=Maggie's Farm
TTITLE18=Wanted Man
TTITLE19=Ruby Don't Take Your Love To Town
TTITLE20=One More Night
TTITLE21=Girl From The North Country
TTITLE22=One Too Many Mornings
EXTD=
EXTT0=
EXTT1=
EXTT2=
EXTT3=
EXTT4=
EXTT5=
EXTT6=
EXTT7=
EXTT8=
EXTT9=
EXTT10=
EXTT11=
EXTT12=
EXTT13=
EXTT14=
EXTT15=
EXTT16=
EXTT17=
EXTT18=
EXTT19=
EXTT20=
EXTT21=
EXTT22=
PLAYORDER=
